<mxfile host="app.diagrams.net" agent="Mozilla/5.0 (Windows NT 10.0; Win64; x64) AppleWebKit/537.36 (KHTML, like Gecko) Chrome/131.0.0.0 Safari/537.36" version="25.0.3">
  <diagram name="Page-0" id="Page-0">
    <mxGraphModel dx="2625" dy="3380.39" grid="1" gridSize="10" guides="1" tooltips="1" connect="1" arrows="1" fold="1" page="1" pageScale="1" pageWidth="1299.63" pageHeight="2075.39" math="0" shadow="0">
      <root>
        <mxCell id="0" />
        <mxCell id="1" parent="0" />
        <mxCell id="l5XDo9pSBE8jEddiQuqP-4" value="" style="edgeStyle=orthogonalEdgeStyle;rounded=0;orthogonalLoop=1;jettySize=auto;html=1;" parent="1" source="l5XDo9pSBE8jEddiQuqP-2" target="l5XDo9pSBE8jEddiQuqP-3" edge="1">
          <mxGeometry relative="1" as="geometry" />
        </mxCell>
        <mxCell id="l5XDo9pSBE8jEddiQuqP-2" value="mulai" style="ellipse;whiteSpace=wrap;html=1;" parent="1" vertex="1">
          <mxGeometry x="210" y="-2040" width="120" height="80" as="geometry" />
        </mxCell>
        <mxCell id="l5XDo9pSBE8jEddiQuqP-6" value="" style="edgeStyle=orthogonalEdgeStyle;rounded=0;orthogonalLoop=1;jettySize=auto;html=1;" parent="1" source="l5XDo9pSBE8jEddiQuqP-3" target="l5XDo9pSBE8jEddiQuqP-5" edge="1">
          <mxGeometry relative="1" as="geometry" />
        </mxCell>
        <mxCell id="l5XDo9pSBE8jEddiQuqP-3" value="tampilkan start screen&lt;div&gt;(tombol: Mulai, Keluar)&lt;/div&gt;" style="whiteSpace=wrap;html=1;" parent="1" vertex="1">
          <mxGeometry x="210" y="-1920" width="120" height="60" as="geometry" />
        </mxCell>
        <mxCell id="l5XDo9pSBE8jEddiQuqP-8" value="" style="edgeStyle=orthogonalEdgeStyle;rounded=0;orthogonalLoop=1;jettySize=auto;html=1;" parent="1" source="l5XDo9pSBE8jEddiQuqP-5" target="l5XDo9pSBE8jEddiQuqP-7" edge="1">
          <mxGeometry relative="1" as="geometry" />
        </mxCell>
        <mxCell id="9JPiYzxqNZKJ2TzNqrfy-4" value="" style="edgeStyle=orthogonalEdgeStyle;rounded=0;orthogonalLoop=1;jettySize=auto;html=1;" edge="1" parent="1" source="l5XDo9pSBE8jEddiQuqP-5" target="l5XDo9pSBE8jEddiQuqP-79">
          <mxGeometry relative="1" as="geometry" />
        </mxCell>
        <mxCell id="l5XDo9pSBE8jEddiQuqP-5" value="apaka memilih memulai?" style="rhombus;whiteSpace=wrap;html=1;" parent="1" vertex="1">
          <mxGeometry x="217.5" y="-1810" width="105" height="100" as="geometry" />
        </mxCell>
        <mxCell id="l5XDo9pSBE8jEddiQuqP-10" value="" style="edgeStyle=orthogonalEdgeStyle;rounded=0;orthogonalLoop=1;jettySize=auto;html=1;" parent="1" source="l5XDo9pSBE8jEddiQuqP-7" target="l5XDo9pSBE8jEddiQuqP-9" edge="1">
          <mxGeometry relative="1" as="geometry" />
        </mxCell>
        <mxCell id="l5XDo9pSBE8jEddiQuqP-7" value="masuk ke pilihan menu utama:&lt;div&gt;1. alokasi&lt;/div&gt;&lt;div&gt;2. pengeluaran&lt;/div&gt;&lt;div&gt;3. laporan bulanan&lt;/div&gt;&lt;div&gt;4. kembali&lt;/div&gt;" style="whiteSpace=wrap;html=1;align=left;" parent="1" vertex="1">
          <mxGeometry x="185" y="-1650" width="170" height="75" as="geometry" />
        </mxCell>
        <mxCell id="l5XDo9pSBE8jEddiQuqP-12" value="" style="edgeStyle=orthogonalEdgeStyle;rounded=0;orthogonalLoop=1;jettySize=auto;html=1;" parent="1" source="l5XDo9pSBE8jEddiQuqP-9" target="l5XDo9pSBE8jEddiQuqP-11" edge="1">
          <mxGeometry relative="1" as="geometry" />
        </mxCell>
        <mxCell id="l5XDo9pSBE8jEddiQuqP-48" value="" style="edgeStyle=orthogonalEdgeStyle;rounded=0;orthogonalLoop=1;jettySize=auto;html=1;" parent="1" source="l5XDo9pSBE8jEddiQuqP-9" target="l5XDo9pSBE8jEddiQuqP-47" edge="1">
          <mxGeometry relative="1" as="geometry" />
        </mxCell>
        <mxCell id="l5XDo9pSBE8jEddiQuqP-9" value="menu alokasi" style="rhombus;whiteSpace=wrap;html=1;align=center;" parent="1" vertex="1">
          <mxGeometry x="225" y="-1520" width="90" height="92.5" as="geometry" />
        </mxCell>
        <mxCell id="l5XDo9pSBE8jEddiQuqP-14" value="" style="edgeStyle=orthogonalEdgeStyle;rounded=0;orthogonalLoop=1;jettySize=auto;html=1;" parent="1" source="l5XDo9pSBE8jEddiQuqP-11" target="l5XDo9pSBE8jEddiQuqP-13" edge="1">
          <mxGeometry relative="1" as="geometry" />
        </mxCell>
        <mxCell id="l5XDo9pSBE8jEddiQuqP-37" style="edgeStyle=orthogonalEdgeStyle;rounded=0;orthogonalLoop=1;jettySize=auto;html=1;entryX=0;entryY=0.5;entryDx=0;entryDy=0;" parent="1" source="l5XDo9pSBE8jEddiQuqP-11" target="l5XDo9pSBE8jEddiQuqP-7" edge="1">
          <mxGeometry relative="1" as="geometry">
            <Array as="points">
              <mxPoint x="160" y="-1330" />
              <mxPoint x="160" y="-1612" />
            </Array>
          </mxGeometry>
        </mxCell>
        <mxCell id="l5XDo9pSBE8jEddiQuqP-11" value="kembali" style="rhombus;whiteSpace=wrap;html=1;" parent="1" vertex="1">
          <mxGeometry x="230" y="-1370" width="80" height="80" as="geometry" />
        </mxCell>
        <mxCell id="l5XDo9pSBE8jEddiQuqP-16" value="" style="edgeStyle=orthogonalEdgeStyle;rounded=0;orthogonalLoop=1;jettySize=auto;html=1;" parent="1" source="l5XDo9pSBE8jEddiQuqP-13" target="l5XDo9pSBE8jEddiQuqP-15" edge="1">
          <mxGeometry relative="1" as="geometry" />
        </mxCell>
        <mxCell id="l5XDo9pSBE8jEddiQuqP-13" value="input: tanggal, pemasukan, keterangan" style="shape=parallelogram;perimeter=parallelogramPerimeter;whiteSpace=wrap;html=1;fixedSize=1;" parent="1" vertex="1">
          <mxGeometry x="210" y="-1230" width="120" height="60" as="geometry" />
        </mxCell>
        <mxCell id="l5XDo9pSBE8jEddiQuqP-18" value="" style="edgeStyle=orthogonalEdgeStyle;rounded=0;orthogonalLoop=1;jettySize=auto;html=1;" parent="1" source="l5XDo9pSBE8jEddiQuqP-15" target="l5XDo9pSBE8jEddiQuqP-17" edge="1">
          <mxGeometry relative="1" as="geometry" />
        </mxCell>
        <mxCell id="l5XDo9pSBE8jEddiQuqP-40" value="" style="edgeStyle=orthogonalEdgeStyle;rounded=0;orthogonalLoop=1;jettySize=auto;html=1;" parent="1" source="l5XDo9pSBE8jEddiQuqP-15" target="l5XDo9pSBE8jEddiQuqP-39" edge="1">
          <mxGeometry relative="1" as="geometry">
            <Array as="points">
              <mxPoint x="375" y="-1065" />
              <mxPoint x="375" y="-1065" />
            </Array>
          </mxGeometry>
        </mxCell>
        <mxCell id="l5XDo9pSBE8jEddiQuqP-15" value="apakah data lengkap" style="rhombus;whiteSpace=wrap;html=1;" parent="1" vertex="1">
          <mxGeometry x="222.5" y="-1110" width="95" height="90" as="geometry" />
        </mxCell>
        <mxCell id="l5XDo9pSBE8jEddiQuqP-20" value="" style="edgeStyle=orthogonalEdgeStyle;rounded=0;orthogonalLoop=1;jettySize=auto;html=1;" parent="1" source="l5XDo9pSBE8jEddiQuqP-17" target="l5XDo9pSBE8jEddiQuqP-19" edge="1">
          <mxGeometry relative="1" as="geometry" />
        </mxCell>
        <mxCell id="l5XDo9pSBE8jEddiQuqP-42" value="" style="edgeStyle=orthogonalEdgeStyle;rounded=0;orthogonalLoop=1;jettySize=auto;html=1;" parent="1" source="l5XDo9pSBE8jEddiQuqP-17" target="l5XDo9pSBE8jEddiQuqP-41" edge="1">
          <mxGeometry relative="1" as="geometry" />
        </mxCell>
        <mxCell id="l5XDo9pSBE8jEddiQuqP-17" value="apakah jumlah pemasukkan berupa angka" style="rhombus;whiteSpace=wrap;html=1;" parent="1" vertex="1">
          <mxGeometry x="203.75" y="-970" width="132.5" height="130" as="geometry" />
        </mxCell>
        <mxCell id="l5XDo9pSBE8jEddiQuqP-22" value="" style="edgeStyle=orthogonalEdgeStyle;rounded=0;orthogonalLoop=1;jettySize=auto;html=1;" parent="1" source="l5XDo9pSBE8jEddiQuqP-19" target="l5XDo9pSBE8jEddiQuqP-21" edge="1">
          <mxGeometry relative="1" as="geometry" />
        </mxCell>
        <mxCell id="l5XDo9pSBE8jEddiQuqP-19" value="hitung anggaran mingguan (jumlah/4)" style="whiteSpace=wrap;html=1;" parent="1" vertex="1">
          <mxGeometry x="210" y="-780" width="120" height="60" as="geometry" />
        </mxCell>
        <mxCell id="l5XDo9pSBE8jEddiQuqP-24" value="" style="edgeStyle=orthogonalEdgeStyle;rounded=0;orthogonalLoop=1;jettySize=auto;html=1;" parent="1" source="l5XDo9pSBE8jEddiQuqP-21" target="l5XDo9pSBE8jEddiQuqP-23" edge="1">
          <mxGeometry relative="1" as="geometry" />
        </mxCell>
        <mxCell id="l5XDo9pSBE8jEddiQuqP-21" value="simpan ke database" style="shape=cylinder3;whiteSpace=wrap;html=1;boundedLbl=1;backgroundOutline=1;size=15;" parent="1" vertex="1">
          <mxGeometry x="240" y="-680" width="60" height="80" as="geometry" />
        </mxCell>
        <mxCell id="l5XDo9pSBE8jEddiQuqP-26" value="" style="edgeStyle=orthogonalEdgeStyle;rounded=0;orthogonalLoop=1;jettySize=auto;html=1;" parent="1" source="l5XDo9pSBE8jEddiQuqP-23" target="l5XDo9pSBE8jEddiQuqP-25" edge="1">
          <mxGeometry relative="1" as="geometry" />
        </mxCell>
        <mxCell id="l5XDo9pSBE8jEddiQuqP-23" value="tampilkan notifikasi:&lt;div&gt;&quot;anggaran mingguan xxx&quot;&lt;/div&gt;" style="whiteSpace=wrap;html=1;" parent="1" vertex="1">
          <mxGeometry x="197.5" y="-530" width="145" height="60" as="geometry" />
        </mxCell>
        <mxCell id="l5XDo9pSBE8jEddiQuqP-28" value="" style="edgeStyle=orthogonalEdgeStyle;rounded=0;orthogonalLoop=1;jettySize=auto;html=1;" parent="1" source="l5XDo9pSBE8jEddiQuqP-25" target="l5XDo9pSBE8jEddiQuqP-27" edge="1">
          <mxGeometry relative="1" as="geometry" />
        </mxCell>
        <mxCell id="l5XDo9pSBE8jEddiQuqP-38" style="edgeStyle=orthogonalEdgeStyle;rounded=0;orthogonalLoop=1;jettySize=auto;html=1;entryX=1;entryY=0.5;entryDx=0;entryDy=0;" parent="1" source="l5XDo9pSBE8jEddiQuqP-25" target="l5XDo9pSBE8jEddiQuqP-23" edge="1">
          <mxGeometry relative="1" as="geometry">
            <Array as="points">
              <mxPoint x="385" y="-275" />
              <mxPoint x="385" y="-500" />
            </Array>
          </mxGeometry>
        </mxCell>
        <mxCell id="l5XDo9pSBE8jEddiQuqP-25" value="tutup notifikasi" style="rhombus;whiteSpace=wrap;html=1;" parent="1" vertex="1">
          <mxGeometry x="222.5" y="-320" width="95" height="90" as="geometry" />
        </mxCell>
        <mxCell id="l5XDo9pSBE8jEddiQuqP-27" value="kembali ke menu utama" style="whiteSpace=wrap;html=1;" parent="1" vertex="1">
          <mxGeometry x="210" y="-160" width="120" height="60" as="geometry" />
        </mxCell>
        <mxCell id="l5XDo9pSBE8jEddiQuqP-39" value="tampilkann error:&lt;div&gt;&quot;data tidak lengkap&quot;&lt;/div&gt;" style="whiteSpace=wrap;html=1;" parent="1" vertex="1">
          <mxGeometry x="385" y="-1095" width="120" height="60" as="geometry" />
        </mxCell>
        <mxCell id="l5XDo9pSBE8jEddiQuqP-41" value="tampilkan error:&lt;div&gt;&quot;jumlah harus angka&quot;&lt;/div&gt;" style="whiteSpace=wrap;html=1;" parent="1" vertex="1">
          <mxGeometry x="385" y="-935" width="120" height="60" as="geometry" />
        </mxCell>
        <mxCell id="l5XDo9pSBE8jEddiQuqP-50" value="" style="edgeStyle=orthogonalEdgeStyle;rounded=0;orthogonalLoop=1;jettySize=auto;html=1;" parent="1" source="l5XDo9pSBE8jEddiQuqP-47" target="l5XDo9pSBE8jEddiQuqP-49" edge="1">
          <mxGeometry relative="1" as="geometry" />
        </mxCell>
        <mxCell id="l5XDo9pSBE8jEddiQuqP-52" value="" style="edgeStyle=orthogonalEdgeStyle;rounded=0;orthogonalLoop=1;jettySize=auto;html=1;" parent="1" source="l5XDo9pSBE8jEddiQuqP-47" target="l5XDo9pSBE8jEddiQuqP-51" edge="1">
          <mxGeometry relative="1" as="geometry" />
        </mxCell>
        <mxCell id="l5XDo9pSBE8jEddiQuqP-47" value="menu pengeluaran" style="rhombus;whiteSpace=wrap;html=1;" parent="1" vertex="1">
          <mxGeometry x="615" y="-1521.25" width="95" height="93.75" as="geometry" />
        </mxCell>
        <mxCell id="l5XDo9pSBE8jEddiQuqP-86" value="" style="edgeStyle=orthogonalEdgeStyle;rounded=0;orthogonalLoop=1;jettySize=auto;html=1;" parent="1" source="l5XDo9pSBE8jEddiQuqP-49" target="l5XDo9pSBE8jEddiQuqP-85" edge="1">
          <mxGeometry relative="1" as="geometry" />
        </mxCell>
        <mxCell id="l5XDo9pSBE8jEddiQuqP-91" value="" style="edgeStyle=orthogonalEdgeStyle;rounded=0;orthogonalLoop=1;jettySize=auto;html=1;" parent="1" source="l5XDo9pSBE8jEddiQuqP-49" target="l5XDo9pSBE8jEddiQuqP-90" edge="1">
          <mxGeometry relative="1" as="geometry" />
        </mxCell>
        <mxCell id="l5XDo9pSBE8jEddiQuqP-49" value="menu lapooran bulanan" style="rhombus;whiteSpace=wrap;html=1;" parent="1" vertex="1">
          <mxGeometry x="950" y="-1524.38" width="110" height="100.01" as="geometry" />
        </mxCell>
        <mxCell id="l5XDo9pSBE8jEddiQuqP-54" value="" style="edgeStyle=orthogonalEdgeStyle;rounded=0;orthogonalLoop=1;jettySize=auto;html=1;" parent="1" source="l5XDo9pSBE8jEddiQuqP-51" target="l5XDo9pSBE8jEddiQuqP-53" edge="1">
          <mxGeometry relative="1" as="geometry" />
        </mxCell>
        <mxCell id="l5XDo9pSBE8jEddiQuqP-71" value="" style="edgeStyle=orthogonalEdgeStyle;rounded=0;orthogonalLoop=1;jettySize=auto;html=1;" parent="1" source="l5XDo9pSBE8jEddiQuqP-51" edge="1">
          <mxGeometry relative="1" as="geometry">
            <mxPoint x="560" y="-1300.3099999999997" as="targetPoint" />
          </mxGeometry>
        </mxCell>
        <mxCell id="l5XDo9pSBE8jEddiQuqP-51" value="kembali" style="rhombus;whiteSpace=wrap;html=1;" parent="1" vertex="1">
          <mxGeometry x="623.75" y="-1340.62" width="77.5" height="80.62" as="geometry" />
        </mxCell>
        <mxCell id="l5XDo9pSBE8jEddiQuqP-56" style="edgeStyle=orthogonalEdgeStyle;rounded=0;orthogonalLoop=1;jettySize=auto;html=1;entryX=0.5;entryY=0;entryDx=0;entryDy=0;" parent="1" source="l5XDo9pSBE8jEddiQuqP-53" target="l5XDo9pSBE8jEddiQuqP-55" edge="1">
          <mxGeometry relative="1" as="geometry" />
        </mxCell>
        <mxCell id="l5XDo9pSBE8jEddiQuqP-53" value="input: tanggal, pengeluaran, keterangan" style="shape=parallelogram;perimeter=parallelogramPerimeter;whiteSpace=wrap;html=1;fixedSize=1;" parent="1" vertex="1">
          <mxGeometry x="602.5" y="-1210" width="120" height="60" as="geometry" />
        </mxCell>
        <mxCell id="l5XDo9pSBE8jEddiQuqP-58" style="edgeStyle=orthogonalEdgeStyle;rounded=0;orthogonalLoop=1;jettySize=auto;html=1;entryX=0.5;entryY=0;entryDx=0;entryDy=0;" parent="1" source="l5XDo9pSBE8jEddiQuqP-55" target="l5XDo9pSBE8jEddiQuqP-57" edge="1">
          <mxGeometry relative="1" as="geometry" />
        </mxCell>
        <mxCell id="l5XDo9pSBE8jEddiQuqP-73" value="" style="edgeStyle=orthogonalEdgeStyle;rounded=0;orthogonalLoop=1;jettySize=auto;html=1;" parent="1" source="l5XDo9pSBE8jEddiQuqP-55" target="l5XDo9pSBE8jEddiQuqP-72" edge="1">
          <mxGeometry relative="1" as="geometry" />
        </mxCell>
        <mxCell id="l5XDo9pSBE8jEddiQuqP-55" value="apakah data lengkap" style="rhombus;whiteSpace=wrap;html=1;" parent="1" vertex="1">
          <mxGeometry x="615" y="-1070" width="95" height="90" as="geometry" />
        </mxCell>
        <mxCell id="l5XDo9pSBE8jEddiQuqP-60" value="" style="edgeStyle=orthogonalEdgeStyle;rounded=0;orthogonalLoop=1;jettySize=auto;html=1;" parent="1" source="l5XDo9pSBE8jEddiQuqP-57" target="l5XDo9pSBE8jEddiQuqP-59" edge="1">
          <mxGeometry relative="1" as="geometry" />
        </mxCell>
        <mxCell id="l5XDo9pSBE8jEddiQuqP-75" value="" style="edgeStyle=orthogonalEdgeStyle;rounded=0;orthogonalLoop=1;jettySize=auto;html=1;" parent="1" source="l5XDo9pSBE8jEddiQuqP-57" target="l5XDo9pSBE8jEddiQuqP-74" edge="1">
          <mxGeometry relative="1" as="geometry" />
        </mxCell>
        <mxCell id="l5XDo9pSBE8jEddiQuqP-57" value="apakah jumlah pemasukkan berupa angka" style="rhombus;whiteSpace=wrap;html=1;" parent="1" vertex="1">
          <mxGeometry x="600.63" y="-930" width="123.75" height="125" as="geometry" />
        </mxCell>
        <mxCell id="l5XDo9pSBE8jEddiQuqP-62" value="" style="edgeStyle=orthogonalEdgeStyle;rounded=0;orthogonalLoop=1;jettySize=auto;html=1;" parent="1" source="l5XDo9pSBE8jEddiQuqP-59" target="l5XDo9pSBE8jEddiQuqP-61" edge="1">
          <mxGeometry relative="1" as="geometry" />
        </mxCell>
        <mxCell id="l5XDo9pSBE8jEddiQuqP-59" value="hitung anggaran (anggaran mingguan - total pengeluaran + jumlah))" style="whiteSpace=wrap;html=1;" parent="1" vertex="1">
          <mxGeometry x="593.76" y="-760" width="137.5" height="60" as="geometry" />
        </mxCell>
        <mxCell id="l5XDo9pSBE8jEddiQuqP-64" value="" style="edgeStyle=orthogonalEdgeStyle;rounded=0;orthogonalLoop=1;jettySize=auto;html=1;" parent="1" source="l5XDo9pSBE8jEddiQuqP-61" target="l5XDo9pSBE8jEddiQuqP-63" edge="1">
          <mxGeometry relative="1" as="geometry" />
        </mxCell>
        <mxCell id="l5XDo9pSBE8jEddiQuqP-61" value="simpan ke database" style="shape=cylinder3;whiteSpace=wrap;html=1;boundedLbl=1;backgroundOutline=1;size=15;" parent="1" vertex="1">
          <mxGeometry x="632.5" y="-650" width="60" height="80" as="geometry" />
        </mxCell>
        <mxCell id="l5XDo9pSBE8jEddiQuqP-67" value="" style="edgeStyle=orthogonalEdgeStyle;rounded=0;orthogonalLoop=1;jettySize=auto;html=1;" parent="1" source="l5XDo9pSBE8jEddiQuqP-63" target="l5XDo9pSBE8jEddiQuqP-65" edge="1">
          <mxGeometry relative="1" as="geometry" />
        </mxCell>
        <mxCell id="l5XDo9pSBE8jEddiQuqP-63" value="tampilkan notifikasi:&lt;div&gt;&quot;sisa anggaran xxx&quot;&lt;/div&gt;" style="whiteSpace=wrap;html=1;" parent="1" vertex="1">
          <mxGeometry x="590.01" y="-510" width="145" height="60" as="geometry" />
        </mxCell>
        <mxCell id="l5XDo9pSBE8jEddiQuqP-68" value="" style="edgeStyle=orthogonalEdgeStyle;rounded=0;orthogonalLoop=1;jettySize=auto;html=1;" parent="1" source="l5XDo9pSBE8jEddiQuqP-65" target="l5XDo9pSBE8jEddiQuqP-66" edge="1">
          <mxGeometry relative="1" as="geometry" />
        </mxCell>
        <mxCell id="l5XDo9pSBE8jEddiQuqP-69" style="edgeStyle=orthogonalEdgeStyle;rounded=0;orthogonalLoop=1;jettySize=auto;html=1;entryX=1;entryY=0.5;entryDx=0;entryDy=0;" parent="1" source="l5XDo9pSBE8jEddiQuqP-65" target="l5XDo9pSBE8jEddiQuqP-63" edge="1">
          <mxGeometry relative="1" as="geometry">
            <Array as="points">
              <mxPoint x="790" y="-280" />
              <mxPoint x="790" y="-480" />
            </Array>
          </mxGeometry>
        </mxCell>
        <mxCell id="l5XDo9pSBE8jEddiQuqP-65" value="tutup notifikasi" style="rhombus;whiteSpace=wrap;html=1;" parent="1" vertex="1">
          <mxGeometry x="615.01" y="-330" width="95" height="90" as="geometry" />
        </mxCell>
        <mxCell id="l5XDo9pSBE8jEddiQuqP-66" value="kembali ke menu utama" style="whiteSpace=wrap;html=1;" parent="1" vertex="1">
          <mxGeometry x="602.5" y="-160" width="120" height="60" as="geometry" />
        </mxCell>
        <mxCell id="l5XDo9pSBE8jEddiQuqP-70" value="kembali ke menu utama" style="whiteSpace=wrap;html=1;" parent="1" vertex="1">
          <mxGeometry x="440" y="-1330.31" width="120" height="60" as="geometry" />
        </mxCell>
        <mxCell id="9JPiYzxqNZKJ2TzNqrfy-1" style="edgeStyle=orthogonalEdgeStyle;rounded=0;orthogonalLoop=1;jettySize=auto;html=1;entryX=1;entryY=0.5;entryDx=0;entryDy=0;" edge="1" parent="1" source="l5XDo9pSBE8jEddiQuqP-72" target="l5XDo9pSBE8jEddiQuqP-53">
          <mxGeometry relative="1" as="geometry">
            <Array as="points">
              <mxPoint x="910" y="-1025" />
              <mxPoint x="910" y="-1180" />
            </Array>
          </mxGeometry>
        </mxCell>
        <mxCell id="l5XDo9pSBE8jEddiQuqP-72" value="tampilkann error:&lt;div&gt;&quot;data tidak lengkap&quot;&lt;/div&gt;" style="whiteSpace=wrap;html=1;" parent="1" vertex="1">
          <mxGeometry x="770" y="-1055" width="120" height="60" as="geometry" />
        </mxCell>
        <mxCell id="9JPiYzxqNZKJ2TzNqrfy-2" style="edgeStyle=orthogonalEdgeStyle;rounded=0;orthogonalLoop=1;jettySize=auto;html=1;" edge="1" parent="1" source="l5XDo9pSBE8jEddiQuqP-74">
          <mxGeometry relative="1" as="geometry">
            <mxPoint x="910" y="-1020" as="targetPoint" />
          </mxGeometry>
        </mxCell>
        <mxCell id="l5XDo9pSBE8jEddiQuqP-74" value="tampilkan error:&lt;div&gt;&quot;jumlah harus angka&quot;&lt;/div&gt;" style="whiteSpace=wrap;html=1;" parent="1" vertex="1">
          <mxGeometry x="770" y="-897.5" width="120" height="60" as="geometry" />
        </mxCell>
        <mxCell id="9JPiYzxqNZKJ2TzNqrfy-6" style="edgeStyle=orthogonalEdgeStyle;rounded=0;orthogonalLoop=1;jettySize=auto;html=1;entryX=0;entryY=0.5;entryDx=0;entryDy=0;" edge="1" parent="1" source="l5XDo9pSBE8jEddiQuqP-79" target="l5XDo9pSBE8jEddiQuqP-3">
          <mxGeometry relative="1" as="geometry">
            <Array as="points">
              <mxPoint x="72" y="-1890" />
            </Array>
          </mxGeometry>
        </mxCell>
        <mxCell id="9JPiYzxqNZKJ2TzNqrfy-10" style="edgeStyle=orthogonalEdgeStyle;rounded=0;orthogonalLoop=1;jettySize=auto;html=1;entryX=0.5;entryY=0;entryDx=0;entryDy=0;" edge="1" parent="1" source="l5XDo9pSBE8jEddiQuqP-79" target="l5XDo9pSBE8jEddiQuqP-80">
          <mxGeometry relative="1" as="geometry">
            <Array as="points">
              <mxPoint x="73" y="-200" />
              <mxPoint x="73" y="-170" />
            </Array>
          </mxGeometry>
        </mxCell>
        <mxCell id="l5XDo9pSBE8jEddiQuqP-79" value="apaka memilih keluar?" style="rhombus;whiteSpace=wrap;html=1;" parent="1" vertex="1">
          <mxGeometry x="20" y="-1810" width="105" height="100" as="geometry" />
        </mxCell>
        <mxCell id="l5XDo9pSBE8jEddiQuqP-80" value="selesai" style="ellipse;whiteSpace=wrap;html=1;" parent="1" vertex="1">
          <mxGeometry x="12.5" y="-170" width="120" height="80" as="geometry" />
        </mxCell>
        <mxCell id="l5XDo9pSBE8jEddiQuqP-87" style="edgeStyle=orthogonalEdgeStyle;rounded=0;orthogonalLoop=1;jettySize=auto;html=1;entryX=1;entryY=0.5;entryDx=0;entryDy=0;" parent="1" source="l5XDo9pSBE8jEddiQuqP-85" edge="1" target="l5XDo9pSBE8jEddiQuqP-3">
          <mxGeometry relative="1" as="geometry">
            <mxPoint x="460" y="-1890" as="targetPoint" />
            <Array as="points">
              <mxPoint x="1202" y="-1890" />
            </Array>
          </mxGeometry>
        </mxCell>
        <mxCell id="l5XDo9pSBE8jEddiQuqP-89" value="" style="edgeStyle=orthogonalEdgeStyle;rounded=0;orthogonalLoop=1;jettySize=auto;html=1;" parent="1" source="l5XDo9pSBE8jEddiQuqP-85" target="l5XDo9pSBE8jEddiQuqP-88" edge="1">
          <mxGeometry relative="1" as="geometry" />
        </mxCell>
        <mxCell id="l5XDo9pSBE8jEddiQuqP-85" value="menu kembali" style="rhombus;whiteSpace=wrap;html=1;" parent="1" vertex="1">
          <mxGeometry x="1155" y="-1514.37" width="95" height="80" as="geometry" />
        </mxCell>
        <mxCell id="l5XDo9pSBE8jEddiQuqP-88" value="tetap di menu utama" style="whiteSpace=wrap;html=1;" parent="1" vertex="1">
          <mxGeometry x="1142.5" y="-1380" width="120" height="60" as="geometry" />
        </mxCell>
        <mxCell id="l5XDo9pSBE8jEddiQuqP-93" value="" style="edgeStyle=orthogonalEdgeStyle;rounded=0;orthogonalLoop=1;jettySize=auto;html=1;" parent="1" source="l5XDo9pSBE8jEddiQuqP-90" target="l5XDo9pSBE8jEddiQuqP-92" edge="1">
          <mxGeometry relative="1" as="geometry" />
        </mxCell>
        <mxCell id="l5XDo9pSBE8jEddiQuqP-95" value="" style="edgeStyle=orthogonalEdgeStyle;rounded=0;orthogonalLoop=1;jettySize=auto;html=1;" parent="1" source="l5XDo9pSBE8jEddiQuqP-90" target="l5XDo9pSBE8jEddiQuqP-94" edge="1">
          <mxGeometry relative="1" as="geometry" />
        </mxCell>
        <mxCell id="l5XDo9pSBE8jEddiQuqP-90" value="kembali" style="rhombus;whiteSpace=wrap;html=1;" parent="1" vertex="1">
          <mxGeometry x="966.25" y="-1380" width="77.5" height="80.62" as="geometry" />
        </mxCell>
        <mxCell id="l5XDo9pSBE8jEddiQuqP-92" value="kembali ke menu utama" style="whiteSpace=wrap;html=1;" parent="1" vertex="1">
          <mxGeometry x="800" y="-1369.69" width="120" height="60" as="geometry" />
        </mxCell>
        <mxCell id="l5XDo9pSBE8jEddiQuqP-97" value="" style="edgeStyle=orthogonalEdgeStyle;rounded=0;orthogonalLoop=1;jettySize=auto;html=1;" parent="1" source="l5XDo9pSBE8jEddiQuqP-94" target="l5XDo9pSBE8jEddiQuqP-96" edge="1">
          <mxGeometry relative="1" as="geometry" />
        </mxCell>
        <mxCell id="l5XDo9pSBE8jEddiQuqP-94" value="input data: tanggal (untuk filter)" style="shape=parallelogram;perimeter=parallelogramPerimeter;whiteSpace=wrap;html=1;fixedSize=1;" parent="1" vertex="1">
          <mxGeometry x="937.5" y="-1250" width="135" height="60" as="geometry" />
        </mxCell>
        <mxCell id="l5XDo9pSBE8jEddiQuqP-99" value="" style="edgeStyle=orthogonalEdgeStyle;rounded=0;orthogonalLoop=1;jettySize=auto;html=1;" parent="1" source="l5XDo9pSBE8jEddiQuqP-96" target="l5XDo9pSBE8jEddiQuqP-98" edge="1">
          <mxGeometry relative="1" as="geometry" />
        </mxCell>
        <mxCell id="l5XDo9pSBE8jEddiQuqP-109" value="" style="edgeStyle=orthogonalEdgeStyle;rounded=0;orthogonalLoop=1;jettySize=auto;html=1;" parent="1" source="l5XDo9pSBE8jEddiQuqP-96" target="l5XDo9pSBE8jEddiQuqP-108" edge="1">
          <mxGeometry relative="1" as="geometry" />
        </mxCell>
        <mxCell id="l5XDo9pSBE8jEddiQuqP-96" value="apakah tanggal valid?" style="rhombus;whiteSpace=wrap;html=1;" parent="1" vertex="1">
          <mxGeometry x="952.5" y="-1140" width="105" height="105" as="geometry" />
        </mxCell>
        <mxCell id="l5XDo9pSBE8jEddiQuqP-101" value="" style="edgeStyle=orthogonalEdgeStyle;rounded=0;orthogonalLoop=1;jettySize=auto;html=1;" parent="1" source="l5XDo9pSBE8jEddiQuqP-98" target="l5XDo9pSBE8jEddiQuqP-100" edge="1">
          <mxGeometry relative="1" as="geometry" />
        </mxCell>
        <mxCell id="l5XDo9pSBE8jEddiQuqP-98" value="filter data berdasarkan tanggal yang anda pilih" style="whiteSpace=wrap;html=1;" parent="1" vertex="1">
          <mxGeometry x="945" y="-970" width="120" height="60" as="geometry" />
        </mxCell>
        <mxCell id="l5XDo9pSBE8jEddiQuqP-103" value="" style="edgeStyle=orthogonalEdgeStyle;rounded=0;orthogonalLoop=1;jettySize=auto;html=1;" parent="1" source="l5XDo9pSBE8jEddiQuqP-100" target="l5XDo9pSBE8jEddiQuqP-102" edge="1">
          <mxGeometry relative="1" as="geometry" />
        </mxCell>
        <mxCell id="l5XDo9pSBE8jEddiQuqP-110" style="edgeStyle=orthogonalEdgeStyle;rounded=0;orthogonalLoop=1;jettySize=auto;html=1;" parent="1" source="l5XDo9pSBE8jEddiQuqP-100" target="l5XDo9pSBE8jEddiQuqP-108" edge="1">
          <mxGeometry relative="1" as="geometry" />
        </mxCell>
        <mxCell id="l5XDo9pSBE8jEddiQuqP-100" value="apakah data ditemukan?" style="rhombus;whiteSpace=wrap;html=1;" parent="1" vertex="1">
          <mxGeometry x="957.5" y="-840" width="95" height="100" as="geometry" />
        </mxCell>
        <mxCell id="l5XDo9pSBE8jEddiQuqP-105" value="" style="edgeStyle=orthogonalEdgeStyle;rounded=0;orthogonalLoop=1;jettySize=auto;html=1;" parent="1" source="l5XDo9pSBE8jEddiQuqP-102" target="l5XDo9pSBE8jEddiQuqP-104" edge="1">
          <mxGeometry relative="1" as="geometry" />
        </mxCell>
        <mxCell id="l5XDo9pSBE8jEddiQuqP-102" value="tampilkan laporan dalam bentuk tabel (treeview) tanggal, pemasukan, pengeluaran, kategori, sisa anggaran" style="whiteSpace=wrap;html=1;" parent="1" vertex="1">
          <mxGeometry x="912.5" y="-660" width="185" height="90" as="geometry" />
        </mxCell>
        <mxCell id="l5XDo9pSBE8jEddiQuqP-107" value="" style="edgeStyle=orthogonalEdgeStyle;rounded=0;orthogonalLoop=1;jettySize=auto;html=1;" parent="1" source="l5XDo9pSBE8jEddiQuqP-104" target="l5XDo9pSBE8jEddiQuqP-106" edge="1">
          <mxGeometry relative="1" as="geometry" />
        </mxCell>
        <mxCell id="l5XDo9pSBE8jEddiQuqP-104" value="tampilkan total pemasukan, pengeluaran, dan sisa" style="whiteSpace=wrap;html=1;" parent="1" vertex="1">
          <mxGeometry x="932.5" y="-480" width="145" height="85" as="geometry" />
        </mxCell>
        <mxCell id="l5XDo9pSBE8jEddiQuqP-106" value="tetap di menu laporan bulanan" style="whiteSpace=wrap;html=1;" parent="1" vertex="1">
          <mxGeometry x="937.5" y="-302.5" width="135" height="82.5" as="geometry" />
        </mxCell>
        <mxCell id="l5XDo9pSBE8jEddiQuqP-146" style="edgeStyle=orthogonalEdgeStyle;rounded=0;orthogonalLoop=1;jettySize=auto;html=1;entryX=1;entryY=0.5;entryDx=0;entryDy=0;" parent="1" source="l5XDo9pSBE8jEddiQuqP-108" target="l5XDo9pSBE8jEddiQuqP-94" edge="1">
          <mxGeometry relative="1" as="geometry">
            <Array as="points">
              <mxPoint x="1190" y="-1220" />
            </Array>
          </mxGeometry>
        </mxCell>
        <mxCell id="l5XDo9pSBE8jEddiQuqP-108" value="tidak memunculkan anggaran" style="whiteSpace=wrap;html=1;" parent="1" vertex="1">
          <mxGeometry x="1130" y="-1117.5" width="120" height="60" as="geometry" />
        </mxCell>
        <mxCell id="l5XDo9pSBE8jEddiQuqP-111" value="No" style="text;strokeColor=none;align=center;fillColor=none;html=1;verticalAlign=middle;whiteSpace=wrap;rounded=0;" parent="1" vertex="1">
          <mxGeometry x="160" y="-1780" width="40" height="20" as="geometry" />
        </mxCell>
        <mxCell id="l5XDo9pSBE8jEddiQuqP-113" value="Yes" style="text;strokeColor=none;align=center;fillColor=none;html=1;verticalAlign=middle;whiteSpace=wrap;rounded=0;" parent="1" vertex="1">
          <mxGeometry x="70" y="-1660" width="40" height="20" as="geometry" />
        </mxCell>
        <mxCell id="l5XDo9pSBE8jEddiQuqP-114" value="Yes" style="text;strokeColor=none;align=center;fillColor=none;html=1;verticalAlign=middle;whiteSpace=wrap;rounded=0;" parent="1" vertex="1">
          <mxGeometry x="270" y="-1700" width="40" height="20" as="geometry" />
        </mxCell>
        <mxCell id="l5XDo9pSBE8jEddiQuqP-115" value="No" style="text;strokeColor=none;align=center;fillColor=none;html=1;verticalAlign=middle;whiteSpace=wrap;rounded=0;" parent="1" vertex="1">
          <mxGeometry x="375" y="-1500" width="40" height="20" as="geometry" />
        </mxCell>
        <mxCell id="l5XDo9pSBE8jEddiQuqP-116" value="Yes&lt;span style=&quot;color: rgba(0, 0, 0, 0); font-family: monospace; font-size: 0px; text-align: start; text-wrap-mode: nowrap;&quot;&gt;%3CmxGraphModel%3E%3Croot%3E%3CmxCell%20id%3D%220%22%2F%3E%3CmxCell%20id%3D%221%22%20parent%3D%220%22%2F%3E%3CmxCell%20id%3D%222%22%20value%3D%22No%22%20style%3D%22text%3BstrokeColor%3Dnone%3Balign%3Dcenter%3BfillColor%3Dnone%3Bhtml%3D1%3BverticalAlign%3Dmiddle%3BwhiteSpace%3Dwrap%3Brounded%3D0%3B%22%20vertex%3D%221%22%20parent%3D%221%22%3E%3CmxGeometry%20x%3D%22280%22%20y%3D%22-1780%22%20width%3D%2240%22%20height%3D%2220%22%20as%3D%22geometry%22%2F%3E%3C%2FmxCell%3E%3C%2Froot%3E%3C%2FmxGraphModel%3E&lt;/span&gt;" style="text;strokeColor=none;align=center;fillColor=none;html=1;verticalAlign=middle;whiteSpace=wrap;rounded=0;" parent="1" vertex="1">
          <mxGeometry x="170" y="-1350.31" width="40" height="20" as="geometry" />
        </mxCell>
        <mxCell id="l5XDo9pSBE8jEddiQuqP-117" value="No" style="text;strokeColor=none;align=center;fillColor=none;html=1;verticalAlign=middle;whiteSpace=wrap;rounded=0;" parent="1" vertex="1">
          <mxGeometry x="270" y="-1270.31" width="40" height="20" as="geometry" />
        </mxCell>
        <mxCell id="l5XDo9pSBE8jEddiQuqP-118" value="Yes&lt;span style=&quot;color: rgba(0, 0, 0, 0); font-family: monospace; font-size: 0px; text-align: start; text-wrap-mode: nowrap;&quot;&gt;%3CmxGraphModel%3E%3Croot%3E%3CmxCell%20id%3D%220%22%2F%3E%3CmxCell%20id%3D%221%22%20parent%3D%220%22%2F%3E%3CmxCell%20id%3D%222%22%20value%3D%22No%22%20style%3D%22text%3BstrokeColor%3Dnone%3Balign%3Dcenter%3BfillColor%3Dnone%3Bhtml%3D1%3BverticalAlign%3Dmiddle%3BwhiteSpace%3Dwrap%3Brounded%3D0%3B%22%20vertex%3D%221%22%20parent%3D%221%22%3E%3CmxGeometry%20x%3D%22280%22%20y%3D%22-1780%22%20width%3D%2240%22%20height%3D%2220%22%20as%3D%22geometry%22%2F%3E%3C%2FmxCell%3E%3C%2Froot%3E%3C%2FmxGraphModel%3E&lt;/span&gt;" style="text;strokeColor=none;align=center;fillColor=none;html=1;verticalAlign=middle;whiteSpace=wrap;rounded=0;" parent="1" vertex="1">
          <mxGeometry x="270" y="-1410" width="40" height="20" as="geometry" />
        </mxCell>
        <mxCell id="l5XDo9pSBE8jEddiQuqP-119" value="No" style="text;strokeColor=none;align=center;fillColor=none;html=1;verticalAlign=middle;whiteSpace=wrap;rounded=0;" parent="1" vertex="1">
          <mxGeometry x="330" y="-1090" width="40" height="20" as="geometry" />
        </mxCell>
        <mxCell id="l5XDo9pSBE8jEddiQuqP-120" value="No" style="text;strokeColor=none;align=center;fillColor=none;html=1;verticalAlign=middle;whiteSpace=wrap;rounded=0;" parent="1" vertex="1">
          <mxGeometry x="335" y="-930" width="40" height="20" as="geometry" />
        </mxCell>
        <mxCell id="l5XDo9pSBE8jEddiQuqP-121" value="Yes&lt;span style=&quot;color: rgba(0, 0, 0, 0); font-family: monospace; font-size: 0px; text-align: start; text-wrap-mode: nowrap;&quot;&gt;%3CmxGraphModel%3E%3Croot%3E%3CmxCell%20id%3D%220%22%2F%3E%3CmxCell%20id%3D%221%22%20parent%3D%220%22%2F%3E%3CmxCell%20id%3D%222%22%20value%3D%22No%22%20style%3D%22text%3BstrokeColor%3Dnone%3Balign%3Dcenter%3BfillColor%3Dnone%3Bhtml%3D1%3BverticalAlign%3Dmiddle%3BwhiteSpace%3Dwrap%3Brounded%3D0%3B%22%20vertex%3D%221%22%20parent%3D%221%22%3E%3CmxGeometry%20x%3D%22230%22%20y%3D%22-930%22%20width%3D%2240%22%20height%3D%2220%22%20as%3D%22geometry%22%2F%3E%3C%2FmxCell%3E%3C%2Froot%3E%3C%2FmxGraphModel%3E&lt;/span&gt;" style="text;strokeColor=none;align=center;fillColor=none;html=1;verticalAlign=middle;whiteSpace=wrap;rounded=0;" parent="1" vertex="1">
          <mxGeometry x="270" y="-825" width="40" height="20" as="geometry" />
        </mxCell>
        <mxCell id="l5XDo9pSBE8jEddiQuqP-122" value="Yes&lt;span style=&quot;color: rgba(0, 0, 0, 0); font-family: monospace; font-size: 0px; text-align: start; text-wrap-mode: nowrap;&quot;&gt;%3CmxGraphModel%3E%3Croot%3E%3CmxCell%20id%3D%220%22%2F%3E%3CmxCell%20id%3D%221%22%20parent%3D%220%22%2F%3E%3CmxCell%20id%3D%222%22%20value%3D%22No%22%20style%3D%22text%3BstrokeColor%3Dnone%3Balign%3Dcenter%3BfillColor%3Dnone%3Bhtml%3D1%3BverticalAlign%3Dmiddle%3BwhiteSpace%3Dwrap%3Brounded%3D0%3B%22%20vertex%3D%221%22%20parent%3D%221%22%3E%3CmxGeometry%20x%3D%22230%22%20y%3D%22-930%22%20width%3D%2240%22%20height%3D%2220%22%20as%3D%22geometry%22%2F%3E%3C%2FmxCell%3E%3C%2Froot%3E%3C%2FmxGraphModel%3E&lt;/span&gt;" style="text;strokeColor=none;align=center;fillColor=none;html=1;verticalAlign=middle;whiteSpace=wrap;rounded=0;" parent="1" vertex="1">
          <mxGeometry x="270" y="-210" width="40" height="20" as="geometry" />
        </mxCell>
        <mxCell id="l5XDo9pSBE8jEddiQuqP-123" value="No" style="text;strokeColor=none;align=center;fillColor=none;html=1;verticalAlign=middle;whiteSpace=wrap;rounded=0;" parent="1" vertex="1">
          <mxGeometry x="330" y="-295" width="40" height="20" as="geometry" />
        </mxCell>
        <mxCell id="l5XDo9pSBE8jEddiQuqP-125" value="Yes" style="text;strokeColor=none;align=center;fillColor=none;html=1;verticalAlign=middle;whiteSpace=wrap;rounded=0;" parent="1" vertex="1">
          <mxGeometry x="1200" y="-1560" width="40" height="20" as="geometry" />
        </mxCell>
        <mxCell id="l5XDo9pSBE8jEddiQuqP-126" value="No" style="text;strokeColor=none;align=center;fillColor=none;html=1;verticalAlign=middle;whiteSpace=wrap;rounded=0;" parent="1" vertex="1">
          <mxGeometry x="820" y="-1500" width="40" height="20" as="geometry" />
        </mxCell>
        <mxCell id="l5XDo9pSBE8jEddiQuqP-127" value="No" style="text;strokeColor=none;align=center;fillColor=none;html=1;verticalAlign=middle;whiteSpace=wrap;rounded=0;" parent="1" vertex="1">
          <mxGeometry x="1077.5" y="-1500" width="40" height="20" as="geometry" />
        </mxCell>
        <mxCell id="l5XDo9pSBE8jEddiQuqP-128" value="Yes" style="text;strokeColor=none;align=center;fillColor=none;html=1;verticalAlign=middle;whiteSpace=wrap;rounded=0;" parent="1" vertex="1">
          <mxGeometry x="661.25" y="-1400" width="40" height="20" as="geometry" />
        </mxCell>
        <mxCell id="l5XDo9pSBE8jEddiQuqP-129" value="Yes" style="text;strokeColor=none;align=center;fillColor=none;html=1;verticalAlign=middle;whiteSpace=wrap;rounded=0;" parent="1" vertex="1">
          <mxGeometry x="575.01" y="-1320" width="40" height="20" as="geometry" />
        </mxCell>
        <mxCell id="l5XDo9pSBE8jEddiQuqP-130" value="No" style="text;strokeColor=none;align=center;fillColor=none;html=1;verticalAlign=middle;whiteSpace=wrap;rounded=0;" parent="1" vertex="1">
          <mxGeometry x="652.5" y="-1250.31" width="40" height="20" as="geometry" />
        </mxCell>
        <mxCell id="l5XDo9pSBE8jEddiQuqP-131" value="No" style="text;strokeColor=none;align=center;fillColor=none;html=1;verticalAlign=middle;whiteSpace=wrap;rounded=0;" parent="1" vertex="1">
          <mxGeometry x="710.01" y="-1047.3899999999999" width="40" height="20" as="geometry" />
        </mxCell>
        <mxCell id="l5XDo9pSBE8jEddiQuqP-132" value="No" style="text;strokeColor=none;align=center;fillColor=none;html=1;verticalAlign=middle;whiteSpace=wrap;rounded=0;" parent="1" vertex="1">
          <mxGeometry x="722.5" y="-889.9999999999999" width="40" height="20" as="geometry" />
        </mxCell>
        <mxCell id="l5XDo9pSBE8jEddiQuqP-133" value="Yes" style="text;strokeColor=none;align=center;fillColor=none;html=1;verticalAlign=middle;whiteSpace=wrap;rounded=0;" parent="1" vertex="1">
          <mxGeometry x="661.25" y="-969.9999999999999" width="40" height="20" as="geometry" />
        </mxCell>
        <mxCell id="l5XDo9pSBE8jEddiQuqP-134" value="Yes" style="text;strokeColor=none;align=center;fillColor=none;html=1;verticalAlign=middle;whiteSpace=wrap;rounded=0;" parent="1" vertex="1">
          <mxGeometry x="661.25" y="-789.9999999999999" width="40" height="20" as="geometry" />
        </mxCell>
        <mxCell id="l5XDo9pSBE8jEddiQuqP-135" value="Yes" style="text;strokeColor=none;align=center;fillColor=none;html=1;verticalAlign=middle;whiteSpace=wrap;rounded=0;" parent="1" vertex="1">
          <mxGeometry x="661.25" y="-209.9999999999999" width="40" height="20" as="geometry" />
        </mxCell>
        <mxCell id="l5XDo9pSBE8jEddiQuqP-136" value="No" style="text;strokeColor=none;align=center;fillColor=none;html=1;verticalAlign=middle;whiteSpace=wrap;rounded=0;" parent="1" vertex="1">
          <mxGeometry x="724.38" y="-302.4999999999999" width="40" height="20" as="geometry" />
        </mxCell>
        <mxCell id="l5XDo9pSBE8jEddiQuqP-137" value="No" style="text;strokeColor=none;align=center;fillColor=none;html=1;verticalAlign=middle;whiteSpace=wrap;rounded=0;" parent="1" vertex="1">
          <mxGeometry x="1200" y="-1424.37" width="40" height="20" as="geometry" />
        </mxCell>
        <mxCell id="l5XDo9pSBE8jEddiQuqP-138" value="No" style="text;strokeColor=none;align=center;fillColor=none;html=1;verticalAlign=middle;whiteSpace=wrap;rounded=0;" parent="1" vertex="1">
          <mxGeometry x="1000" y="-1290.31" width="40" height="20" as="geometry" />
        </mxCell>
        <mxCell id="l5XDo9pSBE8jEddiQuqP-139" value="No" style="text;strokeColor=none;align=center;fillColor=none;html=1;verticalAlign=middle;whiteSpace=wrap;rounded=0;" parent="1" vertex="1">
          <mxGeometry x="1072.5" y="-1110" width="40" height="20" as="geometry" />
        </mxCell>
        <mxCell id="l5XDo9pSBE8jEddiQuqP-141" value="Yes" style="text;strokeColor=none;align=center;fillColor=none;html=1;verticalAlign=middle;whiteSpace=wrap;rounded=0;" parent="1" vertex="1">
          <mxGeometry x="926.25" y="-1360" width="40" height="20" as="geometry" />
        </mxCell>
        <mxCell id="l5XDo9pSBE8jEddiQuqP-142" value="Yes" style="text;strokeColor=none;align=center;fillColor=none;html=1;verticalAlign=middle;whiteSpace=wrap;rounded=0;" parent="1" vertex="1">
          <mxGeometry x="1000" y="-1410" width="40" height="20" as="geometry" />
        </mxCell>
        <mxCell id="l5XDo9pSBE8jEddiQuqP-143" value="Yes" style="text;strokeColor=none;align=center;fillColor=none;html=1;verticalAlign=middle;whiteSpace=wrap;rounded=0;" parent="1" vertex="1">
          <mxGeometry x="1003.75" y="-1015" width="40" height="20" as="geometry" />
        </mxCell>
        <mxCell id="l5XDo9pSBE8jEddiQuqP-144" value="Yes" style="text;strokeColor=none;align=center;fillColor=none;html=1;verticalAlign=middle;whiteSpace=wrap;rounded=0;" parent="1" vertex="1">
          <mxGeometry x="1000" y="-890" width="40" height="20" as="geometry" />
        </mxCell>
        <mxCell id="l5XDo9pSBE8jEddiQuqP-145" value="No" style="text;strokeColor=none;align=center;fillColor=none;html=1;verticalAlign=middle;whiteSpace=wrap;rounded=0;" parent="1" vertex="1">
          <mxGeometry x="1097.5" y="-810" width="40" height="20" as="geometry" />
        </mxCell>
        <mxCell id="l5XDo9pSBE8jEddiQuqP-147" value="Yes" style="text;strokeColor=none;align=center;fillColor=none;html=1;verticalAlign=middle;whiteSpace=wrap;rounded=0;" parent="1" vertex="1">
          <mxGeometry x="1000" y="-720" width="40" height="20" as="geometry" />
        </mxCell>
        <mxCell id="9JPiYzxqNZKJ2TzNqrfy-8" value="No" style="text;strokeColor=none;align=center;fillColor=none;html=1;verticalAlign=middle;whiteSpace=wrap;rounded=0;" vertex="1" parent="1">
          <mxGeometry x="160" y="-1780" width="40" height="20" as="geometry" />
        </mxCell>
        <mxCell id="9JPiYzxqNZKJ2TzNqrfy-9" value="No" style="text;strokeColor=none;align=center;fillColor=none;html=1;verticalAlign=middle;whiteSpace=wrap;rounded=0;" vertex="1" parent="1">
          <mxGeometry x="70" y="-1850" width="40" height="20" as="geometry" />
        </mxCell>
      </root>
    </mxGraphModel>
  </diagram>
</mxfile>
